<?xml version="1.0" encoding="utf-8"?>

<!-- Uploaded to: SVG Repo, www.svgrepo.com, Generator: SVG Repo Mixer Tools -->
<svg version="1.1" id="Icons" xmlns="http://www.w3.org/2000/svg" xmlns:xlink="http://www.w3.org/1999/xlink" 
	 viewBox="0 0 32 32" xml:space="preserve">
<style type="text/css">
	.st0{fill:none;stroke:#1EA7FF;stroke-width:2;stroke-linecap:round;stroke-linejoin:round;stroke-miterlimit:10;}
	
		.st1{fill:none;stroke:#1EA7FF;stroke-width:2;stroke-linecap:round;stroke-linejoin:round;stroke-miterlimit:10;stroke-dasharray:3;}
	.st2{fill:none;stroke:#000000;stroke-width:2;stroke-linejoin:round;stroke-miterlimit:10;}
	.st3{fill:none;}
</style>
<line class="st0" x1="16" y1="28" x2="16" y2="10"/>
<path class="st0" d="M21.7,6H25c1.1,0,2,0.9,2,2v18c0,1.1-0.9,2-2,2H7c-1.1,0-2-0.9-2-2V8c0-1.1,0.9-2,2-2h3.3"/>
<line class="st0" x1="19" y1="17" x2="24" y2="17"/>
<polygon class="st0" points="16,4 10,4 10,13 16,10 22,13 22,4 "/>
<polyline class="st0" points="10,4 16,10 22,4 "/>
<rect x="-216" y="-648" class="st3" width="536" height="680"/>
</svg>